Coordinates
version=1
nRows=16
nColumns=18
inDegrees=yes

Units are S.I. units (second, meters, Newtons, ...)
If the header above contains a line with 'inDegrees', this indicates whether rotational values are in degrees (yes) or radians (no).

endheader
time	TH_y	TH_x	TH_z	TH_x_trans	TH_y_trans	TH_z_trans	SC_y	SC_z	SC_x	AC_y	AC_z	AC_x	GH_y	GH_z	GH_yy	EL_x	PS_y
      0.00000000	   -147.47431759	     -2.00342170	      0.75382462	      0.01952914	      1.47831723	      0.03610592	    -25.72343193	      3.38036910	      2.48836896	     51.02468381	      5.10802286	     -4.04981049	      4.20324827	     -1.86919646	      3.19780580	     25.86371592	    112.10303766
      0.01000000	   -147.47425929	     -2.00377688	      0.75438618	      0.01948224	      1.47831443	      0.03609801	    -25.72352203	      3.38091060	      2.48837881	     51.02453455	      5.10839083	     -4.05026846	      4.20324138	     -1.86892457	      3.19778708	     25.86356293	    112.10303773
      0.02000000	   -147.47405668	     -2.00407647	      0.75466973	      0.01944765	      1.47831175	      0.03608442	    -25.72349337	      3.38123707	      2.48842652	     51.02444803	      5.10864555	     -4.05051971	      4.20327823	     -1.86874496	      3.19781840	     25.86346877	    112.10304695
      0.03000000	   -147.47372693	     -2.00449388	      0.75480568	      0.01941787	      1.47831520	      0.03606647	    -25.72337093	      3.38152315	      2.48845813	     51.02440498	      5.10884204	     -4.05071369	      4.20336048	     -1.86861970	      3.19789659	     25.86338763	    112.10306791
      0.04000000	   -147.47326677	     -2.00507918	      0.75473729	      0.01939462	      1.47832341	      0.03604492	    -25.72315115	      3.38175794	      2.48842496	     51.02441382	      5.10894231	     -4.05088273	      4.20350123	     -1.86858741	      3.19803386	     25.86330606	    112.10310360
      0.05000000	   -147.47265765	     -2.00584809	      0.75445824	      0.01937898	      1.47833647	      0.03602176	    -25.72281653	      3.38195470	      2.48831605	     51.02447912	      5.10894160	     -4.05103630	      4.20370894	     -1.86865479	      3.19823829	     25.86322251	    112.10315482
      0.06000000	   -147.47189398	     -2.00684169	      0.75396964	      0.01937145	      1.47835502	      0.03599741	    -25.72236063	      3.38213735	      2.48811062	     51.02460453	      5.10883342	     -4.05119687	      4.20399160	     -1.86883070	      3.19851714	     25.86313255	    112.10322224
      0.07000000	   -147.47094875	     -2.00804521	      0.75329491	      0.01937125	      1.47837776	      0.03597347	    -25.72176828	      3.38233032	      2.48781353	     51.02479026	      5.10862958	     -4.05136841	      4.20435240	     -1.86910580	      3.19887330	     25.86303690	    112.10330568
      0.08000000	   -147.46981478	     -2.00945739	      0.75245766	      0.01937966	      1.47840539	      0.03594999	    -25.72102978	      3.38255952	      2.48743012	     51.02503881	      5.10833714	     -4.05154561	      4.20479440	     -1.86947402	      3.19930983	     25.86294029	    112.10340407
      0.09000000	   -147.37244485	     -2.07720792	      0.71501644	      0.01950652	      1.47838012	      0.03581120	    -25.65609509	      3.41339704	      2.49355544	     51.03603799	      5.12548914	     -4.05989148	      4.23037918	     -1.85998250	      3.22460388	     25.85639804	    112.10889937
      0.10000000	   -147.37242699	     -2.07763012	      0.71448018	      0.01952359	      1.47840531	      0.03578883	    -25.65629493	      3.41370066	      2.49329574	     51.03609634	      5.12520615	     -4.05983511	      4.23048778	     -1.86027820	      3.22471395	     25.85657661	    112.10889517
      0.11000000	   -147.37212171	     -2.07814762	      0.71394801	      0.01955321	      1.47844244	      0.03577204	    -25.65627284	      3.41415428	      2.49305564	     51.03622071	      5.12491375	     -4.05968397	      4.23067793	     -1.86059152	      3.22490668	     25.85679550	    112.10890080
      0.12000000	   -147.37154344	     -2.07873703	      0.71350975	      0.01958774	      1.47848111	      0.03575927	    -25.65605846	      3.41482663	      2.49283477	     51.03638697	      5.12467753	     -4.05953058	      4.23093416	     -1.86086606	      3.22516395	     25.85701864	    112.10891504
      0.13000000	   -147.36942579	     -2.08015707	      0.71313274	      0.01963999	      1.47852896	      0.03574880	    -25.65509136	      3.41722964	      2.49252538	     51.03675442	      5.12471661	     -4.05954217	      4.23162672	     -1.86101355	      3.22584489	     25.85740683	    112.10896098
      0.14000000	   -147.36613946	     -2.08170406	      0.71316785	      0.01970381	      1.47856883	      0.03573794	    -25.65342924	      3.42076874	      2.49242167	     51.03726100	      5.12513405	     -4.05948622	      4.23257460	     -1.86087008	      3.22677648	     25.85790963	    112.10902343
      0.15000000	   -147.25930425	     -2.11272085	      0.69687396	      0.01988364	      1.47839879	      0.03554768	    -25.60492971	      3.50523042	      2.48284007	     51.05572395	      5.12224290	     -4.05009870	      4.26343214	     -1.87034219	      3.25746997	     25.87882507	    112.11030584
